<?xml version="1.0" standalone="no"?>
<!DOCTYPE svg PUBLIC "-//W3C//DTD SVG 20010904//EN"
 "http://www.w3.org/TR/2001/REC-SVG-20010904/DTD/svg10.dtd">

<svg version="1.0" xmlns="http://www.w3.org/2000/svg"
 width="2283.000000pt" height="1128.000000pt" viewBox="0 0 2283.000000 1128.000000"
 preserveAspectRatio="xMidYMid meet">


<g transform="translate(0.000000,1128.000000) scale(0.100000,-0.100000)"
 stroke="none">

<path fill="#ffffff" d="M7310 7830 l0 -2030 395 0 395 0 0 855 0 855 28 0 c26 -1 49 -42 479
-853 l451 -852 432 -3 c383 -2 432 0 426 13 -3 8 -210 399 -459 868 -250 468
-462 867 -471 885 l-17 33 31 10 c64 23 198 93 275 144 265 177 412 438 447
798 21 211 -17 464 -94 639 -105 239 -267 412 -483 518 -242 119 -520 150
-1357 150 l-478 0 0 -2030z m1176 1250 c204 -14 288 -43 369 -126 68 -69 97
-141 103 -250 9 -176 -55 -299 -186 -357 -100 -45 -188 -58 -439 -64 l-233 -6
0 407 0 406 128 0 c70 -1 186 -5 258 -10z"/>

<path fill="#ffffff" d="M10520 7830 l0 -2030 1115 0 1115 0 0 390 0 390 -720 0 -720 0 0 520
0 520 720 0 720 0 -2 378 -3 377 -717 3 -718 2 0 350 0 350 718 2 717 3 3 388
2 387 -1115 0 -1115 0 0 -2030z"/>

<path  fill="#ffffff" d="M13826 9828 c-3 -18 -159 -919 -346 -2003 -187 -1083 -343 -1982
-346 -1997 l-6 -28 386 0 c212 0 386 1 386 3 1 1 99 565 219 1252 172 985 221
1245 228 1225 6 -14 194 -577 419 -1252 l409 -1228 347 0 346 0 30 88 c16 48
204 604 416 1236 213 632 391 1156 396 1165 5 9 10 11 10 5 0 -20 420 -2488
424 -2491 2 -2 174 -2 383 -1 l379 3 -340 2028 -340 2027 -382 0 -382 0 -85
-252 c-409 -1223 -841 -2506 -847 -2517 -5 -10 -177 495 -470 1377 l-463 1392
-382 0 -383 0 -6 -32z"/>

<path fill="#ffffff" d="M19721 9838 c-5 -13 -354 -918 -776 -2013 -423 -1094 -770 -1998
-773 -2007 -4 -17 20 -18 405 -18 l410 0 163 415 164 415 816 0 816 0 119
-312 c65 -172 136 -359 158 -415 l39 -103 409 0 c225 0 409 3 409 8 -1 4 -351
916 -778 2027 l-777 2020 -398 3 -397 2 -9 -22z m667 -1755 c138 -357 254
-656 258 -665 6 -17 -23 -18 -515 -18 -287 0 -521 3 -521 6 0 15 515 1324 521
1324 3 0 119 -291 257 -647z"/>

<path fill="#fdfdfd" d="M6510 9043 c-918 -137 -1781 -338 -2443 -569 -801 -279 -1839 -721
-2417 -1029 -645 -343 -974 -591 -1195 -900 -259 -363 -350 -793 -259 -1230
11 -55 15 -106 11 -165 -4 -76 -4 -80 5 -32 5 30 11 52 13 50 1 -2 19 -52 39
-112 243 -728 1078 -1471 2131 -1894 1087 -437 3390 -961 6120 -1391 839 -133
1806 -261 1964 -261 29 0 95 26 243 94 194 89 2370 1095 4275 1976 l902 417
-1022 7 c-2829 18 -5057 64 -5982 122 -602 37 -1885 218 -3285 464 -551 97
-1632 439 -2085 660 -219 106 -292 160 -426 312 l-60 66 53 64 c316 381 1223
1025 1978 1403 219 109 201 103 1157 450 452 164 821 300 820 302 -2 1 -113
-13 -248 -32 -877 -127 -1734 -308 -2341 -496 -108 -34 -200 -88 -478 -283
-326 -229 -565 -421 -764 -616 -194 -189 -264 -282 -331 -436 -18 -41 -35 -78
-39 -81 -9 -10 -73 135 -98 223 -29 102 -31 285 -4 384 42 159 98 272 194 395
84 109 305 327 462 455 472 385 1261 891 1711 1096 230 105 793 324 1364 531
99 36 182 67 184 69 8 7 -52 2 -149 -13z m3560 -5743 c-43 -156 -78 -285 -77
-286 1 -1 119 124 261 279 143 155 263 284 268 286 5 2 -83 -126 -196 -283
-113 -157 -203 -286 -200 -286 5 0 681 472 722 503 6 5 12 7 12 4 0 -3 -139
-123 -310 -267 -170 -144 -310 -263 -310 -265 0 -7 62 22 474 219 214 102 391
184 393 182 2 -2 -174 -104 -391 -227 -218 -122 -394 -224 -392 -226 2 -2 216
62 476 142 259 81 473 145 475 143 2 -2 -203 -82 -455 -178 -253 -95 -458
-175 -456 -177 1 -2 221 33 488 77 267 44 489 80 493 80 30 0 -55 -21 -490
-120 -269 -61 -494 -113 -500 -115 -5 -3 89 -2 210 0 530 11 757 13 715 6 -25
-5 -251 -26 -502 -47 -252 -21 -456 -39 -455 -41 2 -1 185 -30 408 -63 418
-63 454 -69 448 -74 -2 -2 -211 11 -464 29 -253 18 -461 32 -463 30 -1 -1 154
-62 345 -135 192 -73 352 -136 357 -141 5 -4 -40 5 -100 21 -60 16 -242 65
-404 109 -162 43 -296 78 -297 77 -1 -1 110 -91 248 -201 137 -109 249 -200
249 -202 0 -5 -19 5 -328 184 -156 89 -284 163 -286 163 -1 0 53 -111 122
-246 68 -135 122 -247 120 -249 -2 -2 -86 100 -188 227 l-185 230 -7 -277 c-4
-152 -9 -282 -11 -288 -2 -6 -28 111 -57 261 -30 149 -57 268 -61 264 -4 -4
-66 -133 -139 -287 -73 -154 -137 -284 -143 -290 -7 -7 -8 -5 -4 6 14 42 157
562 155 564 -2 2 -120 -124 -263 -280 -143 -156 -262 -281 -264 -279 -2 1 90
132 203 290 132 182 197 280 179 269 -15 -10 -176 -123 -358 -250 -348 -244
-355 -249 -355 -242 0 3 138 121 308 262 169 142 312 262 317 267 16 15 -57
-19 -450 -207 -388 -185 -452 -215 -423 -193 9 7 192 112 406 233 215 121 389
221 388 222 -1 1 -219 -66 -485 -148 -266 -82 -485 -148 -487 -146 -2 2 203
82 456 178 253 96 456 175 452 177 -4 1 -226 -34 -492 -78 -266 -44 -485 -78
-487 -76 -5 5 -36 -3 507 121 256 58 470 108 475 110 11 5 -561 -2 -805 -10
-245 -7 -113 11 372 51 252 21 454 41 450 45 -4 3 -180 32 -392 64 -212 31
-398 61 -415 65 -34 10 -23 9 525 -29 212 -15 386 -27 387 -26 1 1 -154 61
-345 134 -191 73 -351 137 -356 142 -5 4 40 -5 100 -21 60 -16 241 -65 402
-108 160 -43 292 -78 292 -76 0 1 -110 90 -245 198 -135 108 -245 199 -245
202 0 3 15 -3 33 -14 17 -11 151 -88 297 -172 146 -84 269 -155 274 -158 4 -2
-48 107 -117 244 -70 136 -125 249 -123 251 2 2 86 -99 187 -225 l184 -229 10
286 c6 157 13 279 16 271 3 -8 28 -129 55 -267 26 -139 51 -253 54 -253 3 0
68 131 144 290 76 160 140 289 142 287 2 -2 -32 -131 -76 -287z"/>

<path fill="#ffffff" d="M9790 2946 c-265 -56 -463 -222 -420 -351 54 -164 413 -189 684 -47
236 123 273 308 77 383 -71 28 -245 35 -341 15z m241 -6 c211 -40 259 -174
112 -312 -178 -165 -578 -212 -708 -83 -49 49 -54 91 -20 160 77 158 390 277
616 235z"/>

<path fill="#ffffff" d="M8327 5290 c-97 -25 -173 -88 -215 -179 -38 -80 -37 -194 0 -266 30
-59 103 -130 156 -152 55 -24 182 -25 244 -2 126 46 200 154 200 294 0 63 -4
81 -33 135 -36 68 -92 123 -156 151 -49 23 -144 32 -196 19z m180 -133 c162
-112 83 -376 -113 -377 -65 0 -147 53 -175 114 -21 46 -25 129 -8 173 13 36
66 92 104 109 49 23 145 14 192 -19z"/>

<path fill="#ffffff" d="M8822 5045 c3 -282 5 -290 82 -343 33 -23 50 -27 109 -28 39 -1 80 4
91 10 51 27 74 49 96 88 22 40 24 54 29 283 l6 240 -62 -3 -63 -4 0 -225 c0
-124 -4 -232 -10 -242 -24 -45 -119 -51 -153 -10 -16 20 -17 44 -15 253 l3
231 -58 0 -58 0 3 -250z"/>

<path fill="#ffffff" d="M9380 4988 l0 -308 59 0 59 0 0 125 c-1 69 1 127 3 130 3 2 35 -54
72 -126 l68 -129 64 0 64 0 -32 58 c-18 32 -33 65 -35 73 -2 7 -8 16 -12 19
-10 6 -64 120 -59 124 2 1 20 12 40 24 85 51 94 189 17 258 -42 38 -69 46
-189 53 l-119 6 0 -307z m230 165 c15 -19 19 -35 15 -53 -9 -36 -32 -50 -84
-50 l-46 0 2 62 c1 35 2 64 2 66 1 1 21 2 45 2 36 0 48 -5 66 -27z"/>

<path fill="#ffffff" d="M10100 4988 l0 -308 168 0 167 0 -3 55 -4 55 -109 0 -109 0 0 80 0
80 110 0 110 0 0 55 0 55 -110 0 -110 0 0 60 0 60 113 0 112 0 0 58 0 57 -167
0 -168 0 0 -307z"/>

<path fill="#ffffff" d="M10603 5293 l-53 -4 0 -305 0 -304 60 0 60 0 0 196 0 197 128 -196
127 -197 58 0 57 0 0 308 0 307 -57 0 -58 0 -5 -195 -5 -195 -129 198 c-71
108 -129 196 -130 195 0 -1 -25 -3 -53 -5z"/>

<path  fill="#ffffff" d="M11135 5280 c3 -8 51 -145 108 -305 l103 -290 59 0 59 0 108 300 c59
165 108 302 108 305 0 3 -27 5 -60 5 l-60 0 -17 -50 c-10 -27 -18 -53 -19 -57
-1 -5 -3 -10 -4 -13 -1 -3 -3 -9 -4 -14 0 -5 -4 -13 -8 -17 -5 -4 -8 -13 -8
-20 0 -7 -5 -25 -12 -41 -6 -15 -12 -31 -13 -35 -2 -5 -4 -10 -5 -13 -1 -3 -3
-9 -4 -14 0 -5 -4 -13 -8 -17 -5 -4 -8 -13 -8 -20 0 -7 -5 -25 -12 -41 -6 -15
-12 -31 -13 -35 -2 -5 -4 -11 -5 -15 -1 -5 -2 -11 -1 -15 0 -5 -3 -8 -8 -8 -4
0 -41 94 -82 209 l-73 209 -63 4 c-52 2 -62 0 -58 -12z"/>

<path fill="#ffffff" d="M12020 4988 l0 -308 58 0 57 0 -3 130 c-2 71 1 130 5 130 5 0 39 -58
78 -130 l69 -130 62 0 63 0 -36 63 c-30 53 -101 186 -111 210 -2 4 0 7 5 5 15
-4 73 32 89 57 36 55 26 163 -20 213 -38 43 -74 54 -197 61 l-119 6 0 -307z
m230 172 c26 -26 25 -60 0 -88 -16 -17 -32 -22 -70 -22 l-50 0 0 65 0 65 50 0
c37 0 55 -5 70 -20z"/>

<path  fill="#ffffff" d="M12727 5290 c-97 -25 -173 -88 -215 -179 -38 -81 -38 -195 0 -267 35
-67 117 -140 177 -158 44 -13 159 -15 209 -3 39 10 108 55 138 89 50 60 76
132 77 212 0 63 -4 80 -33 135 -37 69 -93 123 -157 152 -49 23 -144 32 -196
19z m180 -133 c107 -74 119 -234 24 -320 -133 -120 -330 -30 -331 150 0 65 13
99 53 142 46 48 82 62 153 58 48 -2 71 -9 101 -30z"/>

<path fill="#ffffff" d="M13220 4988 l0 -308 58 0 57 0 -2 202 c-2 187 -1 201 13 183 9 -11
70 -102 135 -202 l119 -183 55 0 54 0 3 308 3 307 -60 -1 -60 -2 -5 -198 -5
-198 -124 189 c-68 105 -124 195 -124 200 0 6 -27 10 -59 10 l-58 0 0 -307z"/>

<path fill="#ffffff" d="M13916 5288 c5 -8 -93 -586 -102 -600 -3 -4 21 -8 53 -8 l58 0 28
168 c16 92 31 176 34 187 5 18 7 18 16 -5 6 -14 11 -28 12 -32 2 -5 3 -9 5
-10 1 -2 3 -11 5 -21 2 -10 7 -26 11 -35 4 -9 8 -23 10 -30 1 -8 6 -21 10 -30
4 -9 8 -23 10 -30 1 -8 6 -21 10 -30 4 -9 8 -20 9 -24 2 -5 4 -10 5 -13 1 -3
4 -9 5 -15 1 -5 3 -11 5 -12 1 -2 3 -11 5 -21 8 -45 13 -48 67 -45 l52 3 61
177 c61 177 74 208 76 172 0 -10 2 -28 5 -39 2 -11 7 -36 10 -55 3 -19 7 -44
9 -55 2 -11 6 -38 9 -59 6 -40 15 -89 21 -116 2 -8 4 -18 4 -22 1 -9 111 -11
111 -2 0 3 -22 140 -50 304 -27 164 -50 300 -50 302 0 2 -27 3 -59 3 -33 0
-58 -3 -56 -6 4 -5 -132 -409 -139 -417 -2 -2 -36 93 -75 210 l-71 213 -59 0
c-33 0 -57 -3 -55 -7z"/>

<path fill="#ffffff" d="M14620 4988 l0 -308 168 0 167 0 -3 55 -4 55 -109 0 -109 0 0 80 0
80 110 0 110 0 0 55 0 55 -110 0 -110 0 0 60 0 60 113 0 112 0 0 58 0 57 -167
0 -168 0 0 -307z"/>

<path fill="#ffffff" d="M15123 5292 l-53 -3 0 -305 0 -304 60 0 60 0 2 192 3 193 125 -193
125 -192 58 0 57 0 0 308 0 307 -60 0 -60 0 0 -195 c0 -164 -2 -192 -14 -180
-7 8 -64 94 -126 190 -62 96 -115 177 -119 180 -3 3 -30 4 -58 2z"/>

<path fill="#ffffff" d="M15808 5293 l-168 -3 0 -55 0 -55 55 0 56 0 -3 -250 -3 -250 63 0 62
0 0 250 0 250 55 0 55 0 0 60 c0 33 -1 59 -2 58 -2 -1 -78 -4 -170 -5z"/>

<path fill="#ffffff" d="M16507 5290 c-93 -24 -179 -91 -216 -169 -35 -74 -37 -192 -4 -262
29 -64 87 -126 147 -157 77 -39 189 -40 271 -3 292 133 217 571 -102 596 -32
2 -75 0 -96 -5z m184 -135 c51 -36 81 -91 87 -159 3 -42 -1 -61 -25 -106 -74
-140 -271 -147 -350 -12 -61 104 -20 237 92 297 49 26 144 16 196 -20z"/>

<path fill="#ffffff" d="M17300 5067 l0 -229 -29 -29 c-37 -36 -79 -38 -118 -5 l-28 24 -3
231 -4 231 -60 0 -61 0 5 -232 c4 -209 7 -238 25 -280 32 -70 85 -101 176
-104 40 -1 77 1 82 4 6 4 17 7 25 9 25 3 88 78 98 117 6 20 11 139 12 264 l1
227 -61 0 -60 0 0 -228z"/>

<path fill="#ffffff" d="M17565 4988 l0 -308 58 0 57 0 0 132 c0 87 3 129 10 122 5 -5 38 -64
73 -129 l64 -120 68 -3 67 -3 -34 63 c-94 170 -113 211 -100 215 7 3 27 17 44
31 60 51 75 135 36 212 -33 65 -73 81 -223 89 l-120 6 0 -307z m229 171 c59
-47 19 -113 -66 -107 l-43 3 -3 63 -3 62 44 0 c30 0 53 -7 71 -21z"/>

<path fill="#ffffff" d="M18290 4988 l0 -308 60 0 60 0 0 135 0 134 93 3 92 3 3 53 3 52 -98
0 -98 0 3 60 4 60 94 0 94 0 0 55 0 54 -155 3 -155 3 0 -307z"/>

<path fill="#ffffff" d="M18692 5055 c4 -273 9 -295 86 -349 34 -24 53 -30 111 -32 81 -3 133
16 174 66 41 48 47 90 47 330 l0 225 -60 0 -60 0 0 -228 0 -229 -29 -29 c-37
-36 -79 -38 -118 -5 l-28 24 -5 234 -5 233 -59 0 -58 0 4 -240z"/>

<path fill="#ffffff" d="M19185 5238 l0 -58 58 0 58 0 -3 -250 -3 -250 58 0 57 0 0 250 0 250
60 0 60 0 0 55 0 54 -172 3 -173 3 0 -57z"/>

<path fill="#ffffff" d="M19600 5056 c0 -224 1 -243 21 -284 32 -66 84 -95 172 -98 40 -1 78
3 85 8 6 6 12 7 12 4 0 -18 74 52 92 88 20 38 22 61 26 279 l4 237 -61 0 -61
0 0 -226 c0 -125 -4 -233 -10 -243 -22 -42 -114 -51 -149 -16 -14 13 -16 49
-16 253 l0 237 -57 0 -58 0 0 -239z"/>

<path fill="#ffffff" d="M20640 4988 l0 -308 168 0 167 0 -3 55 -4 55 -109 0 -109 0 0 80 0
80 110 0 110 0 0 55 0 55 -110 0 -110 0 0 60 0 60 113 0 112 0 0 58 0 57 -167
0 -168 0 0 -307z"/>

<path fill="#ffffff" d="M11770 4985 l0 -305 60 0 60 0 0 305 0 305 -60 0 -60 0 0 -305z"/>

<path fill="#ffffff" d="M20160 4986 l0 -306 55 0 55 0 0 130 c0 72 3 130 8 130 4 0 38 -59
75 -130 l68 -130 65 0 65 0 -71 133 c-38 74 -70 136 -70 138 0 3 15 13 34 23
84 45 104 197 33 259 -47 41 -80 50 -199 55 l-118 5 0 -307z m226 169 c18 -18
23 -32 19 -52 -7 -39 -32 -54 -85 -51 l-45 3 -3 63 -3 62 46 0 c36 0 52 -6 71
-25z"/>

<path fill="#fdfdfd" d="M235 4056 c1 -439 2 -466 24 -566 130 -608 546 -1013 1576 -1535 349
-177 761 -329 1324 -490 1914 -546 5233 -1041 8106 -1207 127 -7 445 -13 755
-13 469 0 549 2 650 18 113 18 169 40 3263 1265 l3149 1247 -1329 3 -1328 2
-2030 -941 c-1116 -517 -2052 -946 -2080 -952 -74 -18 -646 -14 -960 7 -1767
115 -4273 450 -6110 817 -1115 223 -2028 469 -2570 694 -213 88 -659 308 -870
430 -856 491 -1385 1040 -1548 1606 l-22 76 0 -461z"/>
</g>
</svg>
